<?xml version="1.0" encoding="iso-8859-1"?>
<!-- Generator: Adobe Illustrator 19.0.0, SVG Export Plug-In . SVG Version: 6.00 Build 0)  -->
<svg version="1.1" id="Layer_1" xmlns="http://www.w3.org/2000/svg" xmlns:xlink="http://www.w3.org/1999/xlink" x="0px" y="0px"
	 viewBox="0 0 434 434" style="enable-background:new 0 0 434 434;" xml:space="preserve">
<g id="XMLID_321_">
	<rect id="XMLID_3888_" x="91" y="95.75" style="fill:#F87F6E;" width="207" height="206"/>
	<polygon id="XMLID_3881_" style="fill:#4CD1B6;" points="424,216.75 424,301.75 298,301.75 298,139.75 374,139.75 374,199.4 	"/>
	<circle id="XMLID_3877_" style="fill:#ECF0F1;" cx="149" cy="310.75" r="27.5"/>
	<circle id="XMLID_3869_" style="fill:#ECF0F1;" cx="339.5" cy="310.75" r="27.5"/>
	<g id="XMLID_318_">
		<path id="XMLID_319_" style="fill:#231F20;" d="M67,153.75c0-5.522-4.477-10-10-10H10c-5.523,0-10,4.478-10,10s4.477,10,10,10h47
			C62.523,163.75,67,159.272,67,153.75z"/>
		<path id="XMLID_542_" style="fill:#231F20;" d="M67,193.75c0-5.522-4.477-10-10-10H30c-5.523,0-10,4.478-10,10s4.477,10,10,10h27
			C62.523,203.75,67,199.272,67,193.75z"/>
		<path id="XMLID_543_" style="fill:#231F20;" d="M67,233.75c0-5.522-4.477-10-10-10h-8c-5.523,0-10,4.478-10,10s4.477,10,10,10h8
			C62.523,243.75,67,239.272,67,233.75z"/>
		<path id="XMLID_846_" style="fill:#231F20;" d="M427.278,207.303L384,192.285V149.75h6c5.523,0,10-4.478,10-10s-4.477-10-10-10
			h-40v-18c0-5.522-4.477-10-10-10s-10,4.478-10,10v18h-22v-34c0-5.522-4.477-10-10-10H91c-5.523,0-10,4.478-10,10v196H67
			c-5.523,0-10,4.478-10,10s4.477,10,10,10h44.525c0.534,20.216,17.132,36.5,37.475,36.5s36.941-16.284,37.475-36.5H298h4.025
			c0.534,20.216,17.132,36.5,37.475,36.5s36.941-16.284,37.475-36.5H424c5.523,0,10-4.478,10-10v-85
			C434,212.491,431.302,208.699,427.278,207.303z M149,328.25c-9.649,0-17.5-7.851-17.5-17.5s7.851-17.5,17.5-17.5
			s17.5,7.851,17.5,17.5S158.649,328.25,149,328.25z M288,139.75v152H181.311c-6.529-11.06-18.564-18.5-32.311-18.5
			s-25.782,7.44-32.311,18.5H101v-186h187V139.75z M339.5,328.25c-9.649,0-17.5-7.851-17.5-17.5s7.851-17.5,17.5-17.5
			s17.5,7.851,17.5,17.5S349.149,328.25,339.5,328.25z M414,291.75h-42.189c-6.529-11.06-18.564-18.5-32.311-18.5
			c-13.197,0-24.815,6.858-31.5,17.191V149.75h56v39h-23c-5.523,0-10,4.478-10,10s4.477,10,10,10h29.472
			c0.084,0.032,0.164,0.068,0.249,0.098L414,223.865V291.75z"/>
	</g>
</g>
<g>
</g>
<g>
</g>
<g>
</g>
<g>
</g>
<g>
</g>
<g>
</g>
<g>
</g>
<g>
</g>
<g>
</g>
<g>
</g>
<g>
</g>
<g>
</g>
<g>
</g>
<g>
</g>
<g>
</g>
</svg>
